<svg viewBox="0 0 22 8" fill="none" xmlns="http://www.w3.org/2000/svg">
<path d="M6.20039 4.0001C6.20039 5.32558 5.12587 6.4001 3.80039 6.4001C2.47491 6.4001 1.40039 5.32558 1.40039 4.0001C1.40039 2.67461 2.47491 1.6001 3.80039 1.6001C5.12587 1.6001 6.20039 2.67461 6.20039 4.0001Z" stroke="currentColor" stroke-width="2"/>
<path d="M13.4004 4.0001C13.4004 5.32558 12.3259 6.4001 11.0004 6.4001C9.67491 6.4001 8.60039 5.32558 8.60039 4.0001C8.60039 2.67461 9.67491 1.6001 11.0004 1.6001C12.3259 1.6001 13.4004 2.67461 13.4004 4.0001Z" stroke="currentColor" stroke-width="2"/>
<path d="M20.6004 4.0001C20.6004 5.32558 19.5259 6.4001 18.2004 6.4001C16.8749 6.4001 15.8004 5.32558 15.8004 4.0001C15.8004 2.67461 16.8749 1.6001 18.2004 1.6001C19.5259 1.6001 20.6004 2.67461 20.6004 4.0001Z" stroke="currentColor" stroke-width="2"/>
</svg>
