<svg viewBox="0 0 22 20" fill="none" xmlns="http://www.w3.org/2000/svg">
<path d="M7.77146 2.79678C8.13142 1.88628 8.99339 1.24512 9.99949 1.24512C11.3292 1.24512 12.4071 2.36508 12.4071 3.74662C12.4071 5.12816 11.3292 6.24812 9.99949 6.24812H1.15039M12.7745 17.204C13.1344 18.1145 13.9964 18.7556 15.0025 18.7556C16.3322 18.7556 17.4101 17.6357 17.4101 16.2541C17.4101 14.8726 16.3322 13.7526 15.0025 13.7526H6.15339M15.534 6.54904C15.908 5.63853 16.8036 4.99737 17.8489 4.99737C19.2304 4.99737 20.3504 6.11733 20.3504 7.49887C20.3504 8.88041 19.2304 10.0004 17.8489 10.0004H3.65189" stroke="currentColor" stroke-width="2" stroke-linecap="round" stroke-linejoin="round"/>
</svg>
